<?xml version="1.0" encoding="UTF-8" standalone="no"?>
<!-- Created with Inkscape (http://www.inkscape.org/) -->

<svg
   version="1.1"
   id="svg1"
   width="500"
   height="500"
   viewBox="0 0 500 500"
   sodipodi:docname="MemBridge.pdf"
   xmlns:inkscape="http://www.inkscape.org/namespaces/inkscape"
   xmlns:sodipodi="http://sodipodi.sourceforge.net/DTD/sodipodi-0.dtd"
   xmlns="http://www.w3.org/2000/svg"
   xmlns:svg="http://www.w3.org/2000/svg">
  <defs
     id="defs1">
    <clipPath
       clipPathUnits="userSpaceOnUse"
       id="clipPath3">
      <path
         d="m 18565.29,18792.11 h 375 v -375 h -375 z"
         id="path3" />
    </clipPath>
  </defs>
  <sodipodi:namedview
     id="namedview1"
     pagecolor="#ffffff"
     bordercolor="#000000"
     borderopacity="0.25"
     inkscape:showpageshadow="2"
     inkscape:pageopacity="0.0"
     inkscape:pagecheckerboard="0"
     inkscape:deskcolor="#d1d1d1">
    <inkscape:page
       x="0"
       y="0"
       inkscape:label="1"
       id="page1"
       width="500"
       height="500"
       margin="0"
       bleed="0" />
  </sodipodi:namedview>
  <g
     id="g1"
     inkscape:groupmode="layer"
     inkscape:label="1">
    <path
       id="path1"
       d="M 0,0 H 375 V 375 H 0 Z"
       style="fill:#19355a;fill-opacity:1;fill-rule:nonzero;stroke:none"
       transform="matrix(1.3333333,0,0,-1.3333333,0,500)" />
    <path
       id="path2"
       d="m 0.03519375,-10.182592 v -1.816406 H 5.1211313 v 1.816406 H 3.4570688 V 0.00100156 H 1.6992563 V -10.182592 Z M 9.3516,-3.1982172 v 1.03125 C 9.304725,-1.2997797 9.0469125,-0.70212344 8.460975,-0.23337344 8.1562875,0.01272031 7.75785,0.12990781 7.2187875,0.12990781 c -1.0664062,0 -1.6054687,-0.5859375 -1.8632812,-1.17187501 -0.1523438,-0.3398437 -0.2460938,-0.7382812 -0.2578125,-1.171875 v -4.5 c 0.046875,-0.8554687 0.3164062,-1.5 0.9140625,-1.9804687 0.2695312,-0.2460938 0.6796875,-0.3632813 1.21875,-0.3632813 1.0664062,0 1.6054687,0.5859375 1.8632812,1.1601563 0.140625,0.3398437 0.2460938,0.7148437 0.2578125,1.1367187 v 2.6015625 H 6.63285 v 1.9453125 c 0.011719,0.3398438 0.1054688,0.5859375 0.2578125,0.7617188 0.082031,0.082031 0.1992188,0.1289062 0.3398438,0.1289062 0.3164062,0 0.4570312,-0.1992187 0.5273437,-0.4335937 0.046875,-0.140625 0.058594,-0.28125 0.058594,-0.4570313 v -0.984375 z m -2.71875,-2.25 h 1.1835938 v -1.265625 c 0,-0.3398437 -0.058594,-0.5859375 -0.2226563,-0.7734375 -0.082031,-0.082031 -0.2109375,-0.140625 -0.3632812,-0.140625 -0.3046875,0 -0.4453125,0.2226563 -0.5273438,0.4570313 -0.046875,0.140625 -0.058594,0.28125 -0.070312,0.4570312 z m 6.981445,-1.78125 c -0.140625,-0.046875 -0.304687,-0.070312 -0.457031,-0.070312 -0.257812,0 -0.574219,0.035156 -0.832031,0.28125 -0.304688,0.2578125 -0.363281,0.5390625 -0.363281,0.8203125 V 0.00100156 H 10.321327 V -8.9286859 h 1.640625 v 0.9960937 c 0.02344,-0.1171875 0.140625,-0.3867187 0.398437,-0.65625 0.257813,-0.2460937 0.65625,-0.46875 1.253906,-0.46875 z m 4.845703,7.23046876 H 16.913123 V -7.0654047 c 0,-0.3398437 -0.257812,-0.3984375 -0.445312,-0.3984375 -0.175781,0 -0.328125,0.1054688 -0.433594,0.2226563 -0.07031,0.058594 -0.128906,0.1289062 -0.1875,0.2109375 V 0.00100156 H 14.206092 V -8.9286859 h 1.640625 v 0.75 c 0.03516,-0.011719 0.105469,-0.082031 0.199219,-0.1757813 0.175781,-0.1875 0.457031,-0.421875 0.75,-0.5859375 0.152344,-0.082031 0.28125,-0.1171875 0.421875,-0.1171875 0.597656,0 0.9375,0.46875 1.113281,0.9960938 0.07031,-0.046875 0.152344,-0.1289063 0.257813,-0.2460938 0.222656,-0.234375 0.492187,-0.4453125 0.808593,-0.6210937 0.140625,-0.082031 0.292969,-0.1289063 0.433594,-0.1289063 0.445313,0 0.75,0.2578125 0.949219,0.5859375 0.199219,0.3398438 0.292969,0.7851563 0.292969,1.1601563 V 0.00100156 H 19.526405 V -7.0654047 c 0,-0.3398437 -0.257813,-0.3984375 -0.445313,-0.3984375 -0.175781,0 -0.328125,0.1054688 -0.433594,0.2226563 -0.07031,0.058594 -0.140625,0.1289062 -0.1875,0.2109375 z m 6.304688,-8.92968746 h 1.652344 v 8.92968746 h -1.652344 v -0.75 c -0.03516,0.0117188 -0.09375,0.0820313 -0.175781,0.1640625 -0.199219,0.19921875 -0.433594,0.421875 -0.726563,0.5859375 -0.140625,0.08203125 -0.292969,0.12890625 -0.433594,0.12890625 -0.445312,0 -0.75,-0.2578125 -0.949218,-0.59765625 -0.199219,-0.328125 -0.292969,-0.77343746 -0.292969,-1.14843746 v -7.3125 h 1.652344 v 7.0664062 c 0,0.3398438 0.1875,0.3984375 0.386718,0.3984375 0.175782,0 0.28125,-0.1054687 0.386719,-0.2109375 0.05859,-0.058594 0.105469,-0.140625 0.152344,-0.2226562 z m 3.834961,4.3242187 -1.40625,-4.3242187 h 1.558594 l 0.585937,2.0859375 0.04687,0.2460937 h 0.03516 l 0.04687,-0.2460937 0.585938,-2.0859375 h 1.546875 l -1.394531,4.3242187 1.535156,4.60546876 h -1.605469 l -0.667969,-2.24999996 -0.04687,-0.2460938 h -0.03516 l -0.04687,0.2460938 -0.667969,2.24999996 h -1.605468 z m 7.816406,4.60546876 H 34.775428 V -8.9286859 h 1.640625 v 0.75 c 0.03516,-0.011719 0.105469,-0.082031 0.199219,-0.1757813 0.175781,-0.1875 0.421875,-0.421875 0.714844,-0.5859375 0.152343,-0.082031 0.28125,-0.1171875 0.433593,-0.1171875 0.433594,0 0.75,0.2578125 0.9375,0.5859375 0.199219,0.3398438 0.304688,0.7851563 0.304688,1.1601563 V 0.00100156 H 37.353553 V -7.0654047 c 0,-0.3398437 -0.199219,-0.3984375 -0.398437,-0.3984375 -0.175782,0 -0.269532,0.1054688 -0.386719,0.2226563 -0.04687,0.058594 -0.09375,0.1289062 -0.152344,0.2109375 z m 6.128906,-6.80859376 c 0,-0.140625 0,-0.375 -0.04687,-0.5390625 -0.07031,-0.1640625 -0.199218,-0.28125 -0.410156,-0.28125 -0.28125,0 -0.398437,0.2226563 -0.445312,0.4804688 -0.01172,0.1289062 -0.03516,0.28125 -0.03516,0.421875 0,0.1523437 0,0.2929687 0,0.421875 h -1.640625 v -0.375 c 0,-0.6445313 0.246094,-1.2421875 0.632813,-1.6757813 0.398437,-0.4453125 0.949219,-0.703125 1.582031,-0.703125 0.539063,0 1.03125,0.2109375 1.40625,0.5742188 0.375,0.3515625 0.609375,0.8554687 0.609375,1.453125 v 5.484375 c 0,0.79687496 0.04687,1.16015621 0.105469,1.54687496 h -1.617188 c -0.140625,-0.17578125 -0.140625,-0.609375 -0.140625,-0.71484375 h -0.117187 c -0.08203,0.140625 -0.222656,0.3515625 -0.457031,0.5390625 -0.222657,0.17578125 -0.539063,0.3046875 -0.867188,0.3046875 -0.210937,0 -0.550781,-0.08203125 -0.808594,-0.41015625 -0.28125,-0.3046875 -0.515625,-0.86718746 -0.515625,-1.79296876 0,-0.9960937 0.304688,-1.7109375 0.691407,-2.203125 0.386718,-0.4921875 0.878906,-0.796875 1.289062,-1.0078125 0.410156,-0.2109375 0.714844,-0.3632812 0.785156,-0.5390625 z m 0,2.4960938 c -0.796875,0.3398437 -1.148437,1.1484375 -1.148437,1.9921875 0,0.1171875 0.02344,0.3164062 0.08203,0.4921875 0.07031,0.1992187 0.1875,0.3398437 0.375,0.3398437 0.375,0 0.691406,-0.2226562 0.691406,-0.5390625 z m 4.523438,-6.8203126 v 2.2031251 h 1.125 v 1.4882812 h -1.125 v 4.4414063 c 0,0.2695312 0,0.6328125 0.05859,0.9257812 0.07031,0.2929688 0.199218,0.5390625 0.457031,0.5390625 0.128906,0 0.292969,-0.011719 0.410156,-0.035156 0.07031,-0.011719 0.128906,-0.011719 0.199219,-0.035156 v 1.61718751 c -0.08203,0.0234375 -0.164063,0.05859375 -0.246094,0.0703125 -0.164062,0.03515625 -0.375,0.046875 -0.632812,0.046875 -0.972657,0 -1.429688,-0.4921875 -1.652344,-1.11328125 -0.234371,-0.62109426 -0.24609,-1.37109426 -0.24609,-1.88671926 v -4.5703125 h -0.832031 v -1.4882812 h 0.832031 v -2.2031251 z m 1.87793,-0.867187 h 1.640625 v 1.652343 h -1.640625 z m 0,11.99999956 V -8.9286859 h 1.640625 v 8.92968746 z m 3.75,0 -1.453125,-8.92968746 h 1.605468 l 0.539063,5.1796875 0.05859,0.5625 h 0.128906 l 0.07031,-0.5625 0.539063,-5.1796875 h 1.59375 l -1.453125,8.92968746 z m 7.816406,-3.19921876 v 1.03125 c -0.04687,0.8671875 -0.304688,1.46484376 -0.890625,1.93359376 -0.304688,0.24609375 -0.703125,0.36328125 -1.242188,0.36328125 -1.066406,0 -1.605468,-0.5859375 -1.863281,-1.17187501 -0.152344,-0.3398437 -0.246094,-0.7382812 -0.257812,-1.171875 v -4.5 c 0.04687,-0.8554687 0.316406,-1.5 0.914062,-1.9804687 0.269531,-0.2460938 0.679688,-0.3632813 1.21875,-0.3632813 1.066406,0 1.605469,0.5859375 1.863281,1.1601563 0.140625,0.3398437 0.246094,0.7148437 0.257813,1.1367187 v 2.6015625 h -2.71875 v 1.9453125 c 0.01172,0.3398438 0.105469,0.5859375 0.257812,0.7617188 0.08203,0.082031 0.199219,0.1289062 0.339844,0.1289062 0.316406,0 0.457031,-0.1992187 0.527344,-0.4335937 0.04687,-0.140625 0.05859,-0.28125 0.05859,-0.4570313 v -0.984375 z m -2.71875,-2.25 h 1.183594 v -1.265625 c 0,-0.3398437 -0.05859,-0.5859375 -0.222657,-0.7734375 -0.08203,-0.082031 -0.210937,-0.140625 -0.363281,-0.140625 -0.304687,0 -0.445312,0.2226563 -0.527344,0.4570313 -0.04687,0.140625 -0.05859,0.28125 -0.07031,0.4570312 z m 6.442383,5.44921876 V -7.4404047 h -0.832032 v -1.4882812 h 0.832032 v -0.2460938 c 0,-0.4570312 0.01172,-1.1953123 0.246093,-1.7929683 0.222657,-0.609375 0.679688,-1.089844 1.652344,-1.089844 0.257813,0 0.433594,0.01172 0.5625,0.05859 l 0.199219,0.04687 v 1.429687 c -0.04687,-0.02344 -0.09375,-0.02344 -0.152344,-0.03516 -0.105469,-0.02344 -0.222656,-0.03516 -0.339844,-0.03516 -0.269531,0 -0.410156,0.246093 -0.46875,0.550781 -0.03516,0.1640623 -0.04687,0.3281248 -0.04687,0.4921873 0,0.1640625 0,0.2929688 0,0.3984375 v 0.2226563 h 0.832032 v 1.4882812 H 65.888714 V 9.8456e-4 Z m 7.394531,-2.16796876 c -0.04687,0.8671875 -0.304688,1.46484376 -0.878906,1.93359376 -0.292969,0.24609375 -0.703125,0.36328125 -1.242188,0.36328125 -1.066406,0 -1.582031,-0.5859375 -1.851562,-1.17187501 -0.140625,-0.3398437 -0.234375,-0.7382812 -0.257813,-1.171875 v -4.5 c 0.04687,-0.8554687 0.316406,-1.5 0.878906,-1.9804687 0.28125,-0.2460938 0.691407,-0.3632813 1.230469,-0.3632813 1.054688,0 1.59375,0.5859375 1.863281,1.1601563 0.140625,0.3398437 0.246094,0.7148437 0.257813,1.1367187 z m -1.546875,-4.546875 c 0.01172,-0.3398437 -0.05859,-0.5859375 -0.210938,-0.7734375 -0.08203,-0.082031 -0.222656,-0.140625 -0.363281,-0.140625 -0.316406,0 -0.445312,0.2226563 -0.503906,0.4570313 -0.04687,0.140625 -0.07031,0.28125 -0.04687,0.4570312 v 4.5 c -0.02344,0.3398438 0.05859,0.5859375 0.210937,0.7617188 0.08203,0.082031 0.1875,0.1289062 0.339844,0.1289062 0.304688,0 0.457031,-0.1992187 0.515625,-0.4335937 0.05859,-0.140625 0.07031,-0.28125 0.05859,-0.4570313 z m 5.838867,-0.515625 c -0.140625,-0.046875 -0.304687,-0.070312 -0.457031,-0.070312 -0.257813,0 -0.574219,0.035156 -0.832031,0.28125 -0.304688,0.2578125 -0.363282,0.5390625 -0.363282,0.8203125 V 0.00100156 H 72.62992 V -8.9286859 h 1.640625 v 0.9960937 c 0.02344,-0.1171875 0.140625,-0.3867187 0.398438,-0.65625 0.257812,-0.2460937 0.65625,-0.46875 1.253906,-0.46875 z m 5.894531,7.23046876 -1.125,-7.54687496 -0.07031,-0.5039063 H 80.52836 V 0.00100156 H 78.899452 V -11.998998 h 2.15625 l 1.042968,5.4843746 0.08203,0.6445312 h 0.03516 l 0.07031,-0.6445312 1.054688,-5.4843746 h 2.144531 V 0.00100156 H 83.856483 V -8.0497797 h -0.09375 l -0.07031,0.5039063 -1.125,7.54687496 z m 8.976563,-3.19921876 v 1.03125 c -0.04687,0.8671875 -0.304688,1.46484376 -0.890625,1.93359376 -0.304688,0.24609375 -0.703125,0.36328125 -1.242188,0.36328125 -1.066406,0 -1.605468,-0.5859375 -1.863281,-1.17187501 -0.152344,-0.3398437 -0.246094,-0.7382812 -0.257812,-1.171875 v -4.5 c 0.04687,-0.8554687 0.316406,-1.5 0.914062,-1.9804687 0.269531,-0.2460938 0.679688,-0.3632813 1.21875,-0.3632813 1.066406,0 1.605469,0.5859375 1.863281,1.1601563 0.140625,0.3398437 0.246094,0.7148437 0.257813,1.1367187 v 2.6015625 h -2.71875 v 1.9453125 c 0.01172,0.3398438 0.105469,0.5859375 0.257812,0.7617188 0.08203,0.082031 0.199219,0.1289062 0.339844,0.1289062 0.316406,0 0.457031,-0.1992187 0.527344,-0.4335937 0.04687,-0.140625 0.05859,-0.28125 0.05859,-0.4570313 v -0.984375 z m -2.71875,-2.25 h 1.183594 v -1.265625 c 0,-0.3398437 -0.05859,-0.5859375 -0.222657,-0.7734375 -0.08203,-0.082031 -0.210937,-0.140625 -0.363281,-0.140625 -0.304687,0 -0.445312,0.2226563 -0.527344,0.4570313 -0.04687,0.140625 -0.05859,0.28125 -0.07031,0.4570312 z m 7.942383,5.44921876 H 94.470741 V -7.0654047 c 0,-0.3398437 -0.257813,-0.3984375 -0.445313,-0.3984375 -0.175781,0 -0.328125,0.1054688 -0.433594,0.2226563 -0.07031,0.058594 -0.128906,0.1289062 -0.1875,0.2109375 V 0.00100156 H 91.763709 V -8.9286859 h 1.640625 v 0.75 c 0.03516,-0.011719 0.105469,-0.082031 0.199219,-0.1757813 0.175781,-0.1875 0.457031,-0.421875 0.75,-0.5859375 0.152344,-0.082031 0.28125,-0.1171875 0.421875,-0.1171875 0.597656,0 0.9375,0.46875 1.113281,0.9960938 0.07031,-0.046875 0.152344,-0.1289063 0.257813,-0.2460938 0.222656,-0.234375 0.492187,-0.4453125 0.808594,-0.6210937 0.140625,-0.082031 0.292968,-0.1289063 0.433593,-0.1289063 0.445313,0 0.75,0.2578125 0.949219,0.5859375 0.199219,0.3398438 0.292969,0.7851563 0.292969,1.1601563 V 0.00100156 H 97.084022 V -7.0654047 c 0,-0.3398437 -0.257813,-0.3984375 -0.445313,-0.3984375 -0.175781,0 -0.328125,0.1054688 -0.433593,0.2226563 -0.07031,0.058594 -0.140625,0.1289062 -0.1875,0.2109375 z M 99.779334,-11.998998 h 1.757816 c 0.77343,0 1.53515,0.199218 2.12109,0.75 0.58594,0.5625 0.98438,1.4765621 0.98438,2.8476558 0,1.3710938 -0.39844,2.2617188 -0.98438,2.8242188 -0.58594,0.5507812 -1.34766,0.7734375 -2.12109,0.7734375 v 4.80468746 h -1.757816 z m 1.757816,5.4023433 c 0.53906,0 0.8789,-0.09375 1.07812,-0.375 0.19922,-0.2578125 0.2461,-0.703125 0.2461,-1.3710937 0,-0.6679688 -0.0469,-1.1367188 -0.2461,-1.4296875 -0.19922,-0.2929691 -0.53906,-0.4335941 -1.07812,-0.4335941 z m 6.35449,-0.2109375 c 0,-0.140625 0,-0.375 -0.0469,-0.5390625 -0.0703,-0.1640625 -0.19921,-0.28125 -0.41015,-0.28125 -0.28125,0 -0.39844,0.2226563 -0.44531,0.4804688 -0.0117,0.1289062 -0.0352,0.28125 -0.0352,0.421875 0,0.1523437 0,0.2929687 0,0.421875 h -1.64063 v -0.375 c 0,-0.6445313 0.2461,-1.2421875 0.63282,-1.6757813 0.39843,-0.4453125 0.94922,-0.703125 1.58203,-0.703125 0.53906,0 1.03125,0.2109375 1.40625,0.5742188 0.375,0.3515625 0.60937,0.8554687 0.60937,1.453125 v 5.484375 c 0,0.79687496 0.0469,1.16015621 0.10547,1.54687496 h -1.61719 c -0.14062,-0.17578125 -0.14062,-0.609375 -0.14062,-0.71484375 h -0.11719 c -0.082,0.140625 -0.22265,0.3515625 -0.45703,0.5390625 -0.22266,0.17578125 -0.53906,0.3046875 -0.86719,0.3046875 -0.21093,0 -0.55078,-0.08203125 -0.80859,-0.41015625 -0.28125,-0.3046875 -0.51563,-0.86718746 -0.51563,-1.79296876 0,-0.9960937 0.30469,-1.7109375 0.69141,-2.203125 0.38672,-0.4921875 0.87891,-0.796875 1.28906,-1.0078125 0.41016,-0.2109375 0.71485,-0.3632812 0.78516,-0.5390625 z m 0,2.4960938 c -0.79688,0.3398437 -1.14844,1.1484375 -1.14844,1.9921875 0,0.1171875 0.0234,0.3164062 0.082,0.4921875 0.0703,0.1992187 0.1875,0.3398437 0.375,0.3398437 0.375,0 0.69141,-0.2226562 0.69141,-0.5390625 z m 2.5957,4.31249996 V -11.998998 h 1.64063 V 0.00100156 Z m 5.32031,-6.80859376 c 0,-0.140625 0,-0.375 -0.0469,-0.5390625 -0.0703,-0.1640625 -0.19922,-0.28125 -0.41016,-0.28125 -0.28125,0 -0.39843,0.2226563 -0.44531,0.4804688 -0.0117,0.1289062 -0.0352,0.28125 -0.0352,0.421875 0,0.1523437 0,0.2929687 0,0.421875 h -1.64062 v -0.375 c 0,-0.6445313 0.24609,-1.2421875 0.63281,-1.6757813 0.39844,-0.4453125 0.94922,-0.703125 1.58203,-0.703125 0.53907,0 1.03125,0.2109375 1.40625,0.5742188 0.375,0.3515625 0.60938,0.8554687 0.60938,1.453125 v 5.484375 c 0,0.79687496 0.0469,1.16015621 0.10547,1.54687496 h -1.61719 c -0.14063,-0.17578125 -0.14063,-0.609375 -0.14063,-0.71484375 h -0.11718 c -0.082,0.140625 -0.22266,0.3515625 -0.45703,0.5390625 -0.22266,0.17578125 -0.53907,0.3046875 -0.86719,0.3046875 -0.21094,0 -0.55078,-0.08203125 -0.8086,-0.41015625 -0.28125,-0.3046875 -0.51562,-0.86718746 -0.51562,-1.79296876 0,-0.9960937 0.30469,-1.7109375 0.69141,-2.203125 0.38671,-0.4921875 0.8789,-0.796875 1.28906,-1.0078125 0.41015,-0.2109375 0.71484,-0.3632812 0.78515,-0.5390625 z m 0,2.4960938 c -0.79687,0.3398437 -1.14843,1.1484375 -1.14843,1.9921875 0,0.1171875 0.0234,0.3164062 0.082,0.4921875 0.0703,0.1992187 0.1875,0.3398437 0.375,0.3398437 0.375,0 0.6914,-0.2226562 0.6914,-0.5390625 z m 4.15723,2.25 c 0,0.328125 0.0234,0.7265625 0.45703,0.7265625 0.375,0 0.48047,-0.1875 0.48047,-0.7265625 v -1.2304688 h 1.64063 v 0.8554688 c 0,0.9960937 -0.17578,1.64062496 -0.53907,2.02734371 -0.35156,0.3984375 -0.8789,0.5390625 -1.58203,0.5390625 -0.58593,0 -1.125,-0.1640625 -1.5,-0.57421875 -0.375,-0.3984375 -0.59765,-1.07812496 -0.59765,-2.07421876 v -3.890625 c 0,-0.9960937 0.22265,-1.6757812 0.59765,-2.0742187 0.375,-0.4101563 0.91407,-0.5742188 1.5,-0.5742188 0.70313,0 1.23047,0.140625 1.58203,0.5390625 0.36329,0.3867188 0.53907,1.03125 0.53907,2.0273438 v 0.6914062 h -1.64063 v -1.0664062 c 0,-0.5390625 -0.10547,-0.7265625 -0.48047,-0.7265625 -0.43359,0 -0.45703,0.3984375 -0.45703,0.7265625 z m 7.62598,-1.1367188 v 1.03125 c -0.0469,0.8671875 -0.30469,1.46484376 -0.89063,1.93359376 -0.30468,0.24609375 -0.70312,0.36328125 -1.24218,0.36328125 -1.06641,0 -1.60547,-0.5859375 -1.86329,-1.17187501 -0.15234,-0.3398437 -0.24609,-0.7382812 -0.25781,-1.171875 v -4.5 c 0.0469,-0.8554687 0.31641,-1.5 0.91406,-1.9804687 0.26954,-0.2460938 0.67969,-0.3632813 1.21875,-0.3632813 1.06641,0 1.60547,0.5859375 1.86329,1.1601563 0.14062,0.3398437 0.24609,0.7148437 0.25781,1.1367187 v 2.6015625 h -2.71875 v 1.9453125 c 0.0117,0.3398438 0.10547,0.5859375 0.25781,0.7617188 0.082,0.082031 0.19922,0.1289062 0.33984,0.1289062 0.31641,0 0.45704,-0.1992187 0.52735,-0.4335937 0.0469,-0.140625 0.0586,-0.28125 0.0586,-0.4570313 v -0.984375 z m -2.71875,-2.25 h 1.18359 v -1.265625 c 0,-0.3398437 -0.0586,-0.5859375 -0.22265,-0.7734375 -0.082,-0.082031 -0.21094,-0.140625 -0.36329,-0.140625 -0.30468,0 -0.44531,0.2226563 -0.52734,0.4570313 -0.0469,0.140625 -0.0586,0.28125 -0.0703,0.4570312 z m 0,0"
       style="fill:#2f4159;fill-opacity:1;fill-rule:nonzero;stroke:none"
       aria-label="Termux native for MemPalace"
       transform="matrix(1.3333333,0,0,1.3333333,-24753.719,-24556.146)"
       clip-path="url(#clipPath3)" />
    <path
       id="path4"
       d="M 1.8643875,-5.328125e-4 H 6.3292312 V -6.7974078 l 5.3554688,3.9492187 5.367187,-3.9492187 v 6.7968749875 h 4.464844 V -14.789595 L 11.6847,-8.0630328 1.8643875,-14.789595 Z M 40.524544,-10.231002 v -3.726562 H 25.231575 V -5.328125e-4 h 15.28125 V -3.7270953 H 29.696419 v -1.5820313 h 8.636718 v -3.3398437 h -8.636718 v -1.5820317 z m 13.168945,2.1679692 -9.820312,-6.7265622 V -5.328125e-4 H 48.33802 V -6.7974078 l 5.355469,3.9492187 5.367188,-3.9492187 V -5.328125e-4 H 63.52552 V -14.789595 Z m 20.390625,8.53124999 c 7.558594,0 9.996094,-1.86328129 9.996094,-4.33593749 0,-1.7109375 -1.160156,-2.6601563 -2.8125,-3.1875 1.453125,-0.5390625 2.4375,-1.4882813 2.4375,-3.1289067 0,-2.378906 -2.0625,-4.242187 -9.621094,-4.242187 -2.003906,0 -4.746094,0.128906 -6.84375,0.28125 V 0.18696719 c 2.097656,0.15234375 4.839844,0.28125 6.84375,0.28125 z m 0.433594,-9.02343749 c -1.125,0 -2.027344,0 -2.8125,-0.023437 v -2.1210947 c 0.785156,-0.05859 1.734375,-0.09375 2.8125,-0.09375 3.585937,0 4.722656,0.46875 4.722656,1.1953134 0,0.6679688 -0.949219,1.0429688 -4.722656,1.0429683 z m 0,5.390625 c -1.078125,0 -2.027344,-0.035156 -2.8125,-0.09375 v -2.1210938 c 0.785156,-0.023437 1.6875,-0.023437 2.8125,-0.023437 4.148437,0 5.097656,0.375 5.097656,1.0429688 0,0.7265625 -1.136719,1.1953125 -5.097656,1.195312 z m 16.813476,-7.3710937 c 0.820313,-0.03516 1.78125,-0.07031 2.859375,-0.07031 4.113282,0 5.367188,0.7382817 5.367188,1.5468754 0,0.796875 -1.253906,1.5585938 -5.367188,1.5585938 -1.078125,0 -2.039062,-0.035156 -2.859375,-0.070312 z M 86.866341,-5.328125e-4 h 4.464843 V -3.9614703 c 0.960938,0.058594 2.050782,0.09375 3.140625,0.09375 0.621094,0 1.21875,-0.023437 1.769532,-0.058594 l 4.300779,4.67578129 3.36328,-2.53124999 -3.10547,-3.1640625 c 2.3086,-1.0078125 3.41016,-2.5898438 3.41016,-4.359375 0,-2.6601565 -2.40234,-5.1210935 -10.089843,-5.1210935 -2.601563,0 -5.15625,0.128906 -7.253906,0.28125 z m 20.129879,0 h 4.46485 V -13.957564 h -4.46485 z M 119.64954,-10.547408 c 0.57422,-0.04687 1.19532,-0.05859 1.80469,-0.05859 4.42969,0 7.34766,1.1132817 7.34766,3.6328129 0,2.5078125 -2.91797,3.6210938 -7.34766,3.6210938 -0.60937,0 -1.23047,-0.011719 -1.80469,-0.058594 z M 115.1847,0.18696719 c 2.09766,0.1640625 4.01953,0.28125 5.70703,0.28125 8.94141,0 12.5625,-3.19921879 12.5625,-7.44140629 0,-4.2539059 -3.62109,-7.4531249 -12.5625,-7.4531249 -1.6875,0 -3.60937,0.117187 -5.70703,0.28125 z m 34.89844,-7.40624999 v 2.8242187 c -0.94922,0.5625 -2.4375,1.0429688 -4.24219,1.0429688 -3.08203,0 -5.69531,-1.3710938 -5.69531,-3.6210938 0,-2.2734375 2.61328,-3.6328129 5.69531,-3.6328129 1.61719,0 3.24609,0.375 4.48828,0.9492192 l 1.71094,-3.4101562 c -1.6875,-0.855469 -3.8086,-1.359375 -6.19922,-1.359375 -6.15234,0 -10.34766,3.199219 -10.34766,7.4531249 0,4.2421875 4.19532,7.44140629 10.34766,7.44140629 3.65625,0 6.63281,-1.23046875 8.4375,-2.94140629 v -4.7460937 z m 22.5498,-3.0117192 v -3.726562 H 157.33997 V -5.328125e-4 h 15.28125 V -3.7270953 h -10.8164 v -1.5820313 h 8.63672 v -3.3398437 h -8.63672 v -1.5820317 z m 0,0"
       style="fill:#2ca3bf;fill-opacity:1;fill-rule:nonzero;stroke:none"
       aria-label="MemBridge"
       transform="matrix(1.3333333,0,0,1.3333333,133.9204,301.28587)" />
    <path
       id="path5"
       d="m 0,0 v 3.657 c 0,0.674 -0.545,1.219 -1.219,1.219 -0.674,0 -1.219,-0.545 -1.219,-1.219 V 0 h -6.096 v 11.886 c 0,5.546 -4.512,10.058 -10.057,10.058 -5.546,0 -10.058,-4.512 -10.058,-10.058 V 0 h -6.095 v 5.791 c -0.018,1.597 -2.417,1.605 -2.439,0 V 0 c -1.344,0 -2.438,-1.094 -2.438,-2.438 v -2.438 c 0,-1.345 1.094,-2.439 2.438,-2.439 h 10.972 c 1.344,0 2.438,1.094 2.438,2.439 v 2.438 c 0,1.344 -1.094,2.438 -2.438,2.438 v 11.886 c 0,4.202 3.418,7.62 7.62,7.62 4.201,0 7.619,-3.418 7.619,-7.62 V 0 c -1.344,0 -2.438,-1.094 -2.438,-2.438 v -2.438 c 0,-1.345 1.094,-2.439 2.438,-2.439 H 0 c 1.344,0 2.438,1.094 2.438,2.439 v 2.438 C 2.438,-1.094 1.344,0 0,0 m -26.208,-4.876 h -10.975 v 2.438 c 0.402,0 10.972,0 10.972,0 z m 15.236,0 v 2.438 c 0,0 10.539,0 10.972,0 l 0.002,-2.438 z"
       style="fill:#2ca3bf;fill-opacity:1;fill-rule:nonzero;stroke:none"
       transform="matrix(1.3333333,0,0,-1.3333333,292.25987,222.17347)" />
    <path
       id="path6"
       d="m 0,0 c 1.565,0.005 1.63,2.417 0,2.438 0,0 -65.832,0 -65.832,0 -0.673,0 -1.219,-0.545 -1.219,-1.219 0,-0.674 0.546,-1.219 1.219,-1.219 h 2.439 v -4.876 h -1.22 c -1.344,0 -2.438,-1.095 -2.438,-2.439 v -2.438 c 0,-1.344 1.094,-2.438 2.438,-2.438 V -41.45 c -1.344,0 -2.438,-1.094 -2.438,-2.438 v -2.438 c 0,-1.345 1.094,-2.439 2.438,-2.439 h 10.972 c 1.345,0 2.439,1.094 2.439,2.439 v 2.438 c 0,1.344 -1.094,2.438 -2.439,2.438 v 11.886 c 0.362,10.092 14.884,10.076 15.239,0 0,-0.673 0.545,-1.219 1.219,-1.219 0.674,0 1.219,0.546 1.219,1.219 -0.554,13.348 -19.566,13.335 -20.115,0 0,0 0,-11.886 0,-11.886 h -6.095 v 30.478 c 0,0.674 -0.546,1.219 -1.219,1.219 h -1.219 v 2.438 h 63.393 v -2.438 h -56.079 c -0.674,0 -1.219,-0.545 -1.219,-1.219 0,-0.674 0.545,-1.219 1.219,-1.219 h 53.641 v -19.506 c 0.004,-1.587 2.422,-1.61 2.438,0 0,0 0,19.506 0,19.506 1.344,0 2.438,1.094 2.438,2.438 v 2.438 c 0,1.344 -1.094,2.438 -2.438,2.438 H -2.438 V 0 Z m -53.641,-43.888 0.003,-2.438 h -10.975 v 2.438 z M -37.548,0 h 9.265 v -4.876 h -9.265 z m -2.438,-4.876 h -9.266 V 0 h 9.266 z M -25.845,0 h 9.266 v -4.876 h -9.266 z m -35.11,0 h 9.265 v -4.876 h -9.265 z m 56.079,-4.876 h -9.265 V 0 h 9.265 z"
       style="fill:#2ca3bf;fill-opacity:1;fill-rule:nonzero;stroke:none"
       transform="matrix(1.3333333,0,0,-1.3333333,293.88547,166.90707)" />
  </g>
</svg>
